<svg width="800" height="800" viewBox="0 0 800 800" fill="none" xmlns="http://www.w3.org/2000/svg">
<rect width="800" height="400" fill="#0057B8"/>
<rect y="400" width="800" height="400" fill="#FFD700"/>
<path d="M394.085 302.6C394.085 321.4 388.152 335.733 376.285 345.6C364.418 355.467 347.552 360.4 325.685 360.4C303.818 360.4 286.885 355.467 274.885 345.6C263.018 335.733 257.085 321.4 257.085 302.6V220.4H301.285V302C301.285 309.733 303.352 315.933 307.485 320.6C311.618 325.133 317.618 327.4 325.485 327.4C333.352 327.4 339.352 325.067 343.485 320.4C347.752 315.733 349.885 309.6 349.885 302V220.4H394.085V302.6ZM509.051 358L503.251 338.6H455.051L449.251 358H404.051L454.251 220.4H505.651L555.851 358H509.051ZM464.251 307.8H494.051L479.651 258.8H478.851L464.251 307.8Z" fill="#FFD700"/>
<path d="M82.8664 438.4H127.066V540.8H197.666V576H82.8664V438.4ZM308.465 576L302.665 556.6H254.465L248.665 576H203.465L253.665 438.4H305.065L355.265 576H308.465ZM263.665 525.8H293.465L279.065 476.8H278.265L263.665 525.8ZM437.262 473.6V576H393.062V473.6H347.862V438.4H482.262V473.6H437.262ZM504.398 576V438.4H548.598V576H504.398ZM678.532 576L620.732 509.2V576H580.132V438.4H618.732L676.532 506.2V438.4H717.132V576H678.532Z" fill="#0057B8"/>
</svg>
